<svg width="46" height="60" viewBox="0 0 46 60" fill="none" xmlns="http://www.w3.org/2000/svg">
<path d="M45.048 19.7376V19.4591V4.64837C45.048 2.46616 43.3266 0.691162 41.2122 0.691162H39.3176C37.3534 0.691162 35.7141 2.21253 35.4998 4.23585L35.4879 4.35196H30.7014C30.2282 4.35196 29.7747 4.53592 29.4335 4.86268L8.21418 25.284C7.79982 25.6197 7.53377 26.1323 7.53377 26.7072V28.4447C6.00417 29.0192 4.90702 30.4854 4.90702 32.2143V44.6107C4.90702 45.6214 5.72494 46.4393 6.7356 46.4393H12.1034C13.114 46.4393 13.9319 45.6214 13.9319 44.6107V32.2145C13.9319 30.4437 12.7798 28.9528 11.1909 28.4096V27.4949L31.439 8.0091H35.1167L34.2699 16.352C31.4798 17.1799 29.2618 19.0676 28.4641 21.5038L25.3521 30.9922C25.2802 31.131 25.2411 31.2806 25.2064 31.4373C22.6718 40.9201 19.4678 44.153 22.2159 48.5324C23.4648 50.5258 25.7025 51.9905 28.3168 52.5767C29.035 56.3242 32.3283 59.1681 36.282 59.1681C40.7587 59.1681 44.4016 55.5253 44.4016 51.0486C44.4016 50.1633 44.2235 49.326 43.9606 48.5275C44.6667 47.4091 45.048 46.1703 45.048 44.8843V19.7376ZM10.2748 42.7823H8.56417V32.2145C8.56417 32.0054 8.73386 31.8341 8.94268 31.8341H9.89445C10.1035 31.8341 10.2748 32.0056 10.2748 32.2145V42.7823ZM28.3285 33.6519H41.391V37.309H27.1295L28.3285 33.6519ZM39.3176 4.3483H41.2122C41.2854 4.3483 41.3909 4.46442 41.3909 4.64837V15.9255C41.251 15.9133 41.1155 15.8893 40.9712 15.8893H37.9934L38.9532 6.42995C38.9654 6.34474 39.0035 6.26885 39.0035 6.18035C39.0035 6.15109 38.9883 6.12677 38.987 6.09806L39.1375 4.61436C39.1553 4.45016 39.2553 4.3483 39.3176 4.3483ZM31.9392 22.643C32.5267 20.8484 34.8356 19.5465 37.4302 19.5465H40.9712C41.1731 19.5465 41.3141 19.5964 41.3909 19.6375V19.7376V29.9948H29.528L31.9392 22.643ZM24.9551 43.9376L25.9297 40.9662H41.3909V44.7899C39.9909 43.6449 38.2272 42.9288 36.282 42.9288C32.5753 42.9288 29.4748 45.4409 28.5058 48.8413C26.2049 48.1283 24.2144 46.2032 24.9551 43.9376ZM36.282 55.5108C33.8213 55.5108 31.8196 53.5091 31.8196 51.0484C31.8196 48.5877 33.8213 46.5859 36.282 46.5859C38.7427 46.5859 40.7445 48.5877 40.7445 51.0484C40.7445 53.5091 38.7427 55.5108 36.282 55.5108ZM6.27845 48.7714L5.2731 50.2983C4.71777 51.1411 4.95164 52.2752 5.79461 52.8305C6.63448 53.384 7.76874 53.1562 8.32682 52.309L9.33217 50.7821C9.8875 49.9393 9.65363 48.8053 8.81066 48.2499C7.96952 47.6966 6.83562 47.9286 6.27845 48.7714ZM2.2587 54.8822L1.25335 56.409C0.698018 57.2518 0.931892 58.3859 1.77486 58.9412C2.61473 59.4947 3.74899 59.2669 4.30707 58.4197L5.31242 56.8929C5.86775 56.0501 5.63388 54.916 4.79091 54.3606C3.94977 53.8073 2.81404 54.0412 2.2587 54.8822ZM15.1498 58.4001C15.6563 59.272 16.7743 59.5688 17.6498 59.0608C18.5229 58.5519 18.8177 57.4341 18.3105 56.5608L17.9372 55.9197C17.4302 55.0447 16.3087 54.7518 15.4372 55.259C14.5641 55.7679 14.2693 56.8857 14.7766 57.759L15.1498 58.4001Z" fill="#2DA884"/>
</svg>
