<svg width="60" height="60" viewBox="0 0 60 60" fill="none" xmlns="http://www.w3.org/2000/svg">
<path d="M0.778503 57.5518C0.778503 58.5625 1.59642 59.3804 2.60707 59.3804H57.3927C58.4034 59.3804 59.2213 58.5625 59.2213 57.5518C59.2213 56.5412 58.4034 55.7233 57.3927 55.7233H47.8551C47.8816 55.5987 47.9302 55.4826 47.9302 55.3501C47.9302 51.3215 44.7748 48.0447 40.8981 48.0447C39.8677 48.0447 38.875 48.2715 37.9641 48.7072C35.8962 47.1679 33.0802 46.7823 30.7374 47.6894C30.5464 47.4195 30.3326 47.1712 30.1084 46.9337C30.1593 46.7922 30.219 46.6537 30.2339 46.4985C30.2375 46.4842 30.2392 46.4681 30.241 46.452C30.4196 45.4699 30.5802 44.4878 30.7071 43.5218C30.7338 43.4217 30.7535 43.3217 30.7643 43.22C30.7733 43.1718 30.7947 43.0701 30.8 43.0469C30.8108 42.988 30.8179 42.9147 30.8232 42.8415C30.8344 42.7638 30.842 42.6854 30.8528 42.6073C32.0718 42.9973 33.3174 43.1879 34.55 43.1879C39.2643 43.186 43.7715 40.4558 45.7785 35.8915C45.9749 35.4468 45.9857 34.9432 45.8089 34.4915C45.6321 34.0399 45.2839 33.6755 44.8392 33.4809C40.1791 31.4408 35.028 32.4739 31.5731 35.7399C31.7022 33.8444 31.77 31.9434 31.7838 30.0412C32.0328 29.7107 32.2177 29.3706 32.3444 29.0433C36.6258 31.1092 43.0397 25.8 41.2212 21.7576C45.759 20.2921 45.7577 12.4781 41.2175 11.0184C43.0395 7.00739 36.6752 1.63212 32.3444 3.72547C30.7349 -0.414054 21.8769 -0.415334 20.2623 3.72364C15.9461 1.6398 9.57613 7.01086 11.3965 11.018C6.85649 12.4777 6.85357 20.2958 11.3946 21.7572C9.51377 25.9384 16.0983 31.0511 20.2625 29.0448C20.8089 30.4519 22.3035 32.1073 26.3072 32.1073C26.9781 32.1073 27.555 32.0467 28.0924 31.9626C27.9917 35.4451 27.696 38.9443 27.1911 42.4019C27.1875 42.4233 27.184 42.4484 27.1822 42.4769C27.1679 42.5413 27.1518 42.6216 27.1394 42.7144C27.118 42.7912 27.1037 42.868 27.0929 42.9467C27.0077 43.6168 26.8867 44.3007 26.7711 44.9824C26.2664 44.8605 25.7438 44.7932 25.2091 44.7932C22.0216 44.7932 19.3341 47.0593 18.5663 50.12C15.7735 50.3807 13.5145 52.7272 13.3216 55.6735C13.3205 55.6909 13.3289 55.7061 13.3284 55.7235H2.60744C1.59642 55.7233 0.778503 56.5412 0.778503 57.5518ZM41.3571 36.2197C39.4321 38.6912 36.2641 39.9268 33.166 39.4161C35.1001 36.8983 38.25 35.6858 41.3571 36.2197ZM23.1392 22.8662C20.7697 21.6897 20.0063 25.8912 18.0766 25.8912C16.7204 25.8912 14.7087 23.959 14.7087 23.3323C14.7087 22.8587 17.1133 21.586 17.5355 21.3681C19.4149 20.3973 18.399 17.5164 16.3195 17.9538C12.8577 18.6815 11.6784 18.7688 11.6784 16.3841C11.6784 14.0498 12.7372 14.084 16.3124 14.8163C17.191 14.995 18.0964 14.4985 18.4017 13.6394C18.7089 12.7822 18.3374 11.8288 17.5302 11.4055C17.1248 11.1932 14.7087 9.89872 14.7087 9.43939C14.7087 8.77525 17.4468 5.91097 19.0748 7.28222C20.5569 8.53753 21.2329 10.8503 23.1392 9.90366C25.07 8.94896 23.6143 7.0926 23.6143 5.34832C23.6143 3.96227 28.991 3.95678 28.991 5.34832C28.991 7.05822 27.5623 8.96798 29.4803 9.90549C31.8726 11.0855 32.6013 6.87683 34.5339 6.87683C35.8898 6.87683 37.9054 8.80816 37.9054 9.43939C37.9054 9.90403 35.4928 11.1888 35.0805 11.4036C33.2128 12.3788 34.2238 15.2336 36.2948 14.8161C39.741 14.1094 40.9359 13.9978 40.9359 16.3839C40.9359 21.0477 35.4067 15.7979 34.2055 19.125C33.2669 21.7398 37.9054 22.1511 37.9054 23.3321C37.9054 23.9637 35.894 25.891 34.5339 25.891C33.5193 25.891 32.4132 24.3174 31.7732 23.4375C30.5807 21.7941 27.9845 23.0518 28.5338 25.0071C28.8714 26.2054 28.991 27.0571 28.991 27.4214C28.991 28.3499 27.1141 28.4499 26.307 28.4499C20.445 28.4501 26.3476 24.4487 23.1392 22.8662ZM19.0858 53.7519C19.2769 53.7519 19.45 53.7769 19.5912 53.825C20.1893 54.0304 20.8608 53.943 21.3501 53.5392C21.8394 53.1355 22.0894 52.541 22.0018 51.9125C22.0018 50.0037 23.4411 48.4499 25.209 48.4499C26.5714 48.4499 27.7858 49.3785 28.2303 50.7624C28.4124 51.3285 28.859 51.7695 29.4267 51.948C29.9982 52.1267 30.6142 52.014 31.084 51.6516C32.6858 50.423 35.0143 50.6676 36.4 52.2051C37.0446 52.9248 38.1428 53.0122 38.9 52.4104C39.4804 51.9462 40.1714 51.7015 40.8983 51.7015C42.759 51.7015 44.2733 53.3372 44.2733 55.3497C44.2733 55.4823 44.3219 55.5984 44.3488 55.7229H17.0179C17.1795 54.6082 18.0402 53.7519 19.0858 53.7519Z" fill="#2DA884"/>
</svg>
